<?xml version="1.0" encoding="UTF-8"?><svg id="Layer_1" xmlns="http://www.w3.org/2000/svg" viewBox="0 0 51.42 74.341"><defs><style>.cls-1{fill:#db996c;}.cls-1,.cls-2{stroke:#f2c6a9;}.cls-1,.cls-2,.cls-3{stroke-width:.301px;}.cls-1,.cls-3,.cls-4,.cls-5{stroke-miterlimit:10;}.cls-6{fill:#d8dae0;}.cls-2,.cls-7{fill:#f2c6a9;}.cls-2,.cls-4,.cls-8,.cls-5{stroke-linecap:round;}.cls-2,.cls-8{stroke-linejoin:round;}.cls-9{fill:#e6b09c;}.cls-3{fill:#fff;stroke:#fff;}.cls-10{fill:#c6a28c;}.cls-11{fill:#ebecf0;}.cls-12{fill:#fd0;}.cls-4{stroke-width:.15px;}.cls-4,.cls-8{fill:#1e4248;stroke:#1e4248;}.cls-8{stroke-width:.15px;}.cls-5{fill:none;stroke:#de7e7a;stroke-width:1.505px;}</style></defs><rect class="cls-7" x="15.848" y="62.053" width="18.876" height="8.53"/><path class="cls-10" d="m15.848,56.829v5.486c2.414,1.226,5.496,2.202,9.426,2.569,3.929-.367,7.022-1.344,9.45-2.569v-5.486H15.848Z"/><path class="cls-2" d="m25.285,60.857c-13.077-1.222-16.832-9.17-17.449-10.717-1.716-4.303-2.546-12.603-2.546-12.603h40.101s-.83,8.3-2.546,12.603c-.617,1.547-4.484,9.495-17.561,10.717"/><rect class="cls-12" x="1.972" y="14.015" width="6.637" height="13.191" rx="3.319" ry="3.319"/><path class="cls-12" d="m45.921,9.987c3.025,0,5.5,2.443,5.5,5.43v16.233c0,2.986-2.475,5.43-5.5,5.43"/><ellipse class="cls-9" cx="6.358" cy="33.93" rx="3.398" ry="3.493"/><ellipse class="cls-2" cx="46.221" cy="33.93" rx="3.398" ry="3.493"/><ellipse class="cls-9" cx="31.577" cy="33.65" rx="3.398" ry="3.493"/><ellipse class="cls-9" cx="46.221" cy="33.93" rx="2.26" ry="2.323"/><rect class="cls-2" x="5.179" y="7.801" width="40.213" height="48.219" rx="20.107" ry="20.107"/><path class="cls-5" d="m30.75,50.991c-3.018,3.103-7.911,3.103-10.929,0"/><ellipse class="cls-1" cx="23.259" cy="44.846" rx="1.117" ry="1.149"/><ellipse class="cls-1" cx="27.881" cy="44.846" rx="1.117" ry="1.149"/><rect class="cls-4" x="11.307" y="24.103" width="11.952" height="2.274" rx="1.137" ry="1.137"/><rect class="cls-4" x="27.881" y="24.283" width="11.952" height="2.274" rx="1.137" ry="1.137"/><rect class="cls-3" x="11.307" y="24.103" width="7.244" height="2.274" rx="1.137" ry="1.137"/><g><rect class="cls-12" x="0" y="0" width="44.281" height="18.687" rx="9.344" ry="9.344"/><rect class="cls-12" width="12.717" height="9.344"/><rect class="cls-12" x="31.567" y="9.344" width="12.717" height="9.344"/></g><path class="cls-12" d="m46.403,37.537h-.366c-2.284,0-4.153-2.485-4.153-5.521V15.509c0-3.037,1.869-5.521,4.153-5.521"/><rect class="cls-12" x="44.776" y="11.132" width="7.781" height="5.492" transform="translate(62.544 -34.789) rotate(90)"/><rect class="cls-8" x="14.319" y="28.486" width="5.419" height="2.298" rx="1.149" ry="1.149" transform="translate(34.056 59.269) rotate(180)"/><rect class="cls-8" x="30.667" y="28.486" width="5.419" height="2.298" rx="1.149" ry="1.149" transform="translate(66.753 59.269) rotate(180)"/><rect class="cls-11" x="13.575" y="66.318" width="23.852" height="8.023" rx=".916" ry=".916"/><rect class="cls-6" x="14.275" y="66.741" width="1.544" height="7.165" rx=".772" ry=".772"/><rect class="cls-6" x="16.335" y="66.741" width="1.544" height="7.165" rx=".772" ry=".772"/><rect class="cls-6" x="18.475" y="66.754" width="1.544" height="7.165" rx=".772" ry=".772"/><rect class="cls-6" x="20.534" y="66.754" width="1.544" height="7.165" rx=".772" ry=".772"/><rect class="cls-6" x="22.61" y="66.741" width="1.544" height="7.165" rx=".772" ry=".772"/><rect class="cls-6" x="24.67" y="66.741" width="1.544" height="7.165" rx=".772" ry=".772"/><rect class="cls-6" x="26.762" y="66.741" width="1.544" height="7.165" rx=".772" ry=".772"/><rect class="cls-6" x="28.822" y="66.741" width="1.544" height="7.165" rx=".772" ry=".772"/><rect class="cls-6" x="30.902" y="66.754" width="1.544" height="7.165" rx=".772" ry=".772"/><rect class="cls-6" x="32.961" y="66.754" width="1.544" height="7.165" rx=".772" ry=".772"/><rect class="cls-6" x="35.182" y="66.754" width="1.544" height="7.165" rx=".772" ry=".772"/></svg>